<?xml version="1.0" encoding="UTF-8"?>
<svg version="1.1" viewBox="0 0 2000 2000" width="1280" height="1280" xmlns="http://www.w3.org/2000/svg">
<path transform="translate(872,351)" d="m0 0h154l49 1 1 1v477l8 1h11l10-11 11-14 14-15 16-16 17-13 15-11 24-14 14-7 28-11 32-8 36-6 23-2h53l32 3 30 5 26 7 37 13 27 13 19 12 13 9 13 10 14 12 13 12 8 8 9 11 12 15 13 19 11 18 12 23 12 25 11 29 8 25 10 40 6 34 5 38 2 19 2 44v67l-1 30-3 32-3 24-6 35-7 31-8 28-8 24-11 28-13 27-14 24-9 14-11 15-9 11-11 13-11 12-10 10-11 9-18 14-21 14-22 12-26 12-28 10-24 6-32 6-38 3h-38l-32-2-31-5-24-6-24-8-25-11-20-11-12-8-13-10-10-9-8-7-11-11-7-8-10-12-10-13-7-9h-12l-8 3v109h-228l-1-2-1-21v-1211l1-53 1-1zm396 545-29 5-18 5-19 7-18 8-11 7-12 9-10 9-16 16-10 13-7 10-10 17-12 26-8 24-7 30-6 44-2 19-1 16v31l3 44 5 38 6 28 8 26 9 21 12 23 10 14 9 11 9 10 9 9 11 9 15 11 21 11 21 8 28 6 10 2 16 1h24l18-1 29-5 18-5 19-8 16-9 17-12 11-9v-2l4-2 7-8 9-11 11-17 11-21 10-26 6-21 7-35 4-32 1-17v-83l-2-27-4-30-5-24-5-19-7-20-7-17-11-21-12-17-12-13-7-7-8-7-15-11-18-10-15-6-25-8-21-4-22-3z" fill="#FEFEFE"/>
<path transform="translate(336,351)" d="m0 0h202l2 1 1 1036 2 17 5 19 6 12 8 10 10 8 14 6 7 2 10 1h16l13-1 13-3h11l6 2 3 5 2 9 6 56 11 92v15l-15 6-15 4-35 6-21 2-33 2-39-2-23-3-30-6-21-7-25-11-14-8-12-8-10-8-10-9-16-16-11-15-8-13-11-23-7-19-7-24-5-27-4-36-1-22-1-38v-1e3l1-6z" fill="#FEFEFE"/>
</svg>
